<mxfile host="app.diagrams.net" agent="Mozilla/5.0 (X11; Ubuntu; Linux x86_64; rv:137.0) Gecko/20100101 Firefox/137.0" version="26.2.14">
  <diagram name="Page-1" id="z4T5f7Q72XMcBmw3kdMJ">
    <mxGraphModel dx="651" dy="379" grid="1" gridSize="10" guides="1" tooltips="1" connect="1" arrows="1" fold="1" page="1" pageScale="1" pageWidth="850" pageHeight="1100" math="0" shadow="0">
      <root>
        <mxCell id="0" />
        <mxCell id="1" parent="0" />
        <mxCell id="WnRktpsRmPk0UpyU-U-L-1" value="" style="rounded=0;whiteSpace=wrap;html=1;fillColor=none;" vertex="1" parent="1">
          <mxGeometry x="80" y="160" width="240" height="80" as="geometry" />
        </mxCell>
        <mxCell id="WnRktpsRmPk0UpyU-U-L-2" value="" style="rounded=0;whiteSpace=wrap;html=1;fillColor=none;" vertex="1" parent="1">
          <mxGeometry x="80" y="260" width="240" height="140" as="geometry" />
        </mxCell>
        <mxCell id="WnRktpsRmPk0UpyU-U-L-3" value="" style="rounded=0;whiteSpace=wrap;html=1;fillColor=none;" vertex="1" parent="1">
          <mxGeometry x="340" y="160" width="240" height="240" as="geometry" />
        </mxCell>
        <mxCell id="WnRktpsRmPk0UpyU-U-L-5" value="Infraestrutura NFV (NFVI)" style="text;html=1;align=center;verticalAlign=middle;whiteSpace=wrap;rounded=0;" vertex="1" parent="1">
          <mxGeometry x="79" y="370" width="240" height="30" as="geometry" />
        </mxCell>
        <mxCell id="WnRktpsRmPk0UpyU-U-L-6" value="Funções Virtualizadas de Rede (VNFs)" style="text;html=1;align=center;verticalAlign=middle;whiteSpace=wrap;rounded=0;" vertex="1" parent="1">
          <mxGeometry x="80" y="155" width="240" height="30" as="geometry" />
        </mxCell>
        <mxCell id="WnRktpsRmPk0UpyU-U-L-7" value="NFV MANO" style="text;html=1;align=center;verticalAlign=middle;whiteSpace=wrap;rounded=0;" vertex="1" parent="1">
          <mxGeometry x="340" y="160" width="240" height="20" as="geometry" />
        </mxCell>
        <mxCell id="WnRktpsRmPk0UpyU-U-L-10" value="NFVO" style="rounded=0;whiteSpace=wrap;html=1;" vertex="1" parent="1">
          <mxGeometry x="365" y="200" width="195" height="40" as="geometry" />
        </mxCell>
        <mxCell id="WnRktpsRmPk0UpyU-U-L-11" value="VNFM" style="rounded=0;whiteSpace=wrap;html=1;" vertex="1" parent="1">
          <mxGeometry x="365" y="280" width="85" height="80" as="geometry" />
        </mxCell>
        <mxCell id="WnRktpsRmPk0UpyU-U-L-12" value="VIM" style="rounded=0;whiteSpace=wrap;html=1;" vertex="1" parent="1">
          <mxGeometry x="475" y="280" width="85" height="80" as="geometry" />
        </mxCell>
        <mxCell id="WnRktpsRmPk0UpyU-U-L-15" value="" style="endArrow=classic;startArrow=classic;html=1;rounded=0;entryX=0.218;entryY=0.996;entryDx=0;entryDy=0;entryPerimeter=0;exitX=0.5;exitY=0;exitDx=0;exitDy=0;" edge="1" parent="1" source="WnRktpsRmPk0UpyU-U-L-11" target="WnRktpsRmPk0UpyU-U-L-10">
          <mxGeometry width="50" height="50" relative="1" as="geometry">
            <mxPoint x="400" y="310" as="sourcePoint" />
            <mxPoint x="450" y="260" as="targetPoint" />
          </mxGeometry>
        </mxCell>
        <mxCell id="WnRktpsRmPk0UpyU-U-L-16" value="" style="endArrow=classic;startArrow=classic;html=1;rounded=0;entryX=0.218;entryY=0.996;entryDx=0;entryDy=0;entryPerimeter=0;exitX=0.5;exitY=0;exitDx=0;exitDy=0;" edge="1" parent="1">
          <mxGeometry width="50" height="50" relative="1" as="geometry">
            <mxPoint x="517.42" y="280" as="sourcePoint" />
            <mxPoint x="517.42" y="240" as="targetPoint" />
          </mxGeometry>
        </mxCell>
        <mxCell id="WnRktpsRmPk0UpyU-U-L-17" value="" style="endArrow=classic;startArrow=classic;html=1;rounded=0;exitX=0.999;exitY=0.851;exitDx=0;exitDy=0;exitPerimeter=0;" edge="1" parent="1">
          <mxGeometry width="50" height="50" relative="1" as="geometry">
            <mxPoint x="320" y="379.21999999999997" as="sourcePoint" />
            <mxPoint x="520" y="360" as="targetPoint" />
            <Array as="points">
              <mxPoint x="520.24" y="380.08" />
            </Array>
          </mxGeometry>
        </mxCell>
        <mxCell id="WnRktpsRmPk0UpyU-U-L-18" value="" style="endArrow=none;html=1;rounded=0;" edge="1" parent="1">
          <mxGeometry width="50" height="50" relative="1" as="geometry">
            <mxPoint x="330" y="320" as="sourcePoint" />
            <mxPoint x="330" y="200" as="targetPoint" />
          </mxGeometry>
        </mxCell>
        <mxCell id="WnRktpsRmPk0UpyU-U-L-20" value="" style="endArrow=none;html=1;rounded=0;" edge="1" parent="1">
          <mxGeometry width="50" height="50" relative="1" as="geometry">
            <mxPoint x="340" y="330" as="sourcePoint" />
            <mxPoint x="340" y="210" as="targetPoint" />
          </mxGeometry>
        </mxCell>
        <mxCell id="WnRktpsRmPk0UpyU-U-L-22" value="" style="endArrow=classic;html=1;rounded=0;" edge="1" parent="1">
          <mxGeometry width="50" height="50" relative="1" as="geometry">
            <mxPoint x="330" y="320" as="sourcePoint" />
            <mxPoint x="365" y="320" as="targetPoint" />
          </mxGeometry>
        </mxCell>
        <mxCell id="WnRktpsRmPk0UpyU-U-L-24" value="" style="endArrow=classic;html=1;rounded=0;entryX=1;entryY=0.5;entryDx=0;entryDy=0;" edge="1" parent="1" target="WnRktpsRmPk0UpyU-U-L-1">
          <mxGeometry width="50" height="50" relative="1" as="geometry">
            <mxPoint x="330" y="200" as="sourcePoint" />
            <mxPoint x="350" y="190" as="targetPoint" />
          </mxGeometry>
        </mxCell>
        <mxCell id="WnRktpsRmPk0UpyU-U-L-25" value="&lt;div align=&quot;center&quot;&gt;&lt;br&gt;&lt;/div&gt;" style="rounded=0;whiteSpace=wrap;html=1;fillColor=none;align=center;" vertex="1" parent="1">
          <mxGeometry x="104" y="190" width="30" height="30" as="geometry" />
        </mxCell>
        <mxCell id="WnRktpsRmPk0UpyU-U-L-28" value="&lt;font style=&quot;font-size: 9px;&quot;&gt;VNF&lt;/font&gt;" style="text;html=1;align=center;verticalAlign=middle;whiteSpace=wrap;rounded=0;" vertex="1" parent="1">
          <mxGeometry x="94" y="199" width="50" height="10" as="geometry" />
        </mxCell>
        <mxCell id="WnRktpsRmPk0UpyU-U-L-30" value="&lt;div align=&quot;center&quot;&gt;&lt;br&gt;&lt;/div&gt;" style="rounded=0;whiteSpace=wrap;html=1;fillColor=none;align=center;" vertex="1" parent="1">
          <mxGeometry x="144" y="190" width="30" height="30" as="geometry" />
        </mxCell>
        <mxCell id="WnRktpsRmPk0UpyU-U-L-31" value="&lt;font style=&quot;font-size: 9px;&quot;&gt;VNF&lt;/font&gt;" style="text;html=1;align=center;verticalAlign=middle;whiteSpace=wrap;rounded=0;" vertex="1" parent="1">
          <mxGeometry x="134" y="199" width="50" height="10" as="geometry" />
        </mxCell>
        <mxCell id="WnRktpsRmPk0UpyU-U-L-32" value="&lt;div align=&quot;center&quot;&gt;&lt;br&gt;&lt;/div&gt;" style="rounded=0;whiteSpace=wrap;html=1;fillColor=none;align=center;" vertex="1" parent="1">
          <mxGeometry x="184" y="190" width="30" height="30" as="geometry" />
        </mxCell>
        <mxCell id="WnRktpsRmPk0UpyU-U-L-33" value="&lt;font style=&quot;font-size: 9px;&quot;&gt;VNF&lt;/font&gt;" style="text;html=1;align=center;verticalAlign=middle;whiteSpace=wrap;rounded=0;" vertex="1" parent="1">
          <mxGeometry x="174" y="199" width="50" height="10" as="geometry" />
        </mxCell>
        <mxCell id="WnRktpsRmPk0UpyU-U-L-34" value="&lt;div align=&quot;center&quot;&gt;&lt;br&gt;&lt;/div&gt;" style="rounded=0;whiteSpace=wrap;html=1;fillColor=none;align=center;" vertex="1" parent="1">
          <mxGeometry x="224" y="190" width="30" height="30" as="geometry" />
        </mxCell>
        <mxCell id="WnRktpsRmPk0UpyU-U-L-35" value="&lt;font style=&quot;font-size: 9px;&quot;&gt;VNF&lt;/font&gt;" style="text;html=1;align=center;verticalAlign=middle;whiteSpace=wrap;rounded=0;" vertex="1" parent="1">
          <mxGeometry x="214" y="199" width="50" height="10" as="geometry" />
        </mxCell>
        <mxCell id="WnRktpsRmPk0UpyU-U-L-36" value="&lt;div align=&quot;center&quot;&gt;&lt;br&gt;&lt;/div&gt;" style="rounded=0;whiteSpace=wrap;html=1;fillColor=none;align=center;" vertex="1" parent="1">
          <mxGeometry x="264" y="190" width="30" height="30" as="geometry" />
        </mxCell>
        <mxCell id="WnRktpsRmPk0UpyU-U-L-37" value="&lt;font style=&quot;font-size: 9px;&quot;&gt;VNF&lt;/font&gt;" style="text;html=1;align=center;verticalAlign=middle;whiteSpace=wrap;rounded=0;" vertex="1" parent="1">
          <mxGeometry x="254" y="199" width="50" height="10" as="geometry" />
        </mxCell>
        <mxCell id="WnRktpsRmPk0UpyU-U-L-40" value="" style="rounded=0;whiteSpace=wrap;html=1;" vertex="1" parent="1">
          <mxGeometry x="100" y="281" width="200" height="20" as="geometry" />
        </mxCell>
        <mxCell id="WnRktpsRmPk0UpyU-U-L-41" value="Recursos Virtuais" style="text;html=1;align=center;verticalAlign=middle;whiteSpace=wrap;rounded=0;" vertex="1" parent="1">
          <mxGeometry x="100" y="280" width="200" height="20" as="geometry" />
        </mxCell>
        <mxCell id="WnRktpsRmPk0UpyU-U-L-43" value="" style="rounded=0;whiteSpace=wrap;html=1;" vertex="1" parent="1">
          <mxGeometry x="100" y="312" width="200" height="20" as="geometry" />
        </mxCell>
        <mxCell id="WnRktpsRmPk0UpyU-U-L-44" value="Camada de Virtualização" style="text;html=1;align=center;verticalAlign=middle;whiteSpace=wrap;rounded=0;" vertex="1" parent="1">
          <mxGeometry x="100" y="311" width="200" height="20" as="geometry" />
        </mxCell>
        <mxCell id="WnRktpsRmPk0UpyU-U-L-45" value="" style="rounded=0;whiteSpace=wrap;html=1;" vertex="1" parent="1">
          <mxGeometry x="100" y="342" width="200" height="20" as="geometry" />
        </mxCell>
        <mxCell id="WnRktpsRmPk0UpyU-U-L-46" value="Recursos Físicos" style="text;html=1;align=center;verticalAlign=middle;whiteSpace=wrap;rounded=0;" vertex="1" parent="1">
          <mxGeometry x="100" y="341" width="200" height="20" as="geometry" />
        </mxCell>
        <mxCell id="WnRktpsRmPk0UpyU-U-L-47" value="" style="endArrow=classic;startArrow=classic;html=1;rounded=0;entryX=0.5;entryY=1;entryDx=0;entryDy=0;exitX=0.095;exitY=0.021;exitDx=0;exitDy=0;exitPerimeter=0;" edge="1" parent="1" source="WnRktpsRmPk0UpyU-U-L-41" target="WnRktpsRmPk0UpyU-U-L-25">
          <mxGeometry width="50" height="50" relative="1" as="geometry">
            <mxPoint x="190" y="330" as="sourcePoint" />
            <mxPoint x="240" y="280" as="targetPoint" />
          </mxGeometry>
        </mxCell>
        <mxCell id="WnRktpsRmPk0UpyU-U-L-48" value="" style="endArrow=classic;startArrow=classic;html=1;rounded=0;entryX=0.5;entryY=1;entryDx=0;entryDy=0;exitX=0.095;exitY=0.021;exitDx=0;exitDy=0;exitPerimeter=0;" edge="1" parent="1">
          <mxGeometry width="50" height="50" relative="1" as="geometry">
            <mxPoint x="158.82999999999998" y="281" as="sourcePoint" />
            <mxPoint x="158.82999999999998" y="221" as="targetPoint" />
          </mxGeometry>
        </mxCell>
        <mxCell id="WnRktpsRmPk0UpyU-U-L-49" value="" style="endArrow=classic;startArrow=classic;html=1;rounded=0;entryX=0.5;entryY=1;entryDx=0;entryDy=0;exitX=0.095;exitY=0.021;exitDx=0;exitDy=0;exitPerimeter=0;" edge="1" parent="1">
          <mxGeometry width="50" height="50" relative="1" as="geometry">
            <mxPoint x="198.82999999999998" y="281" as="sourcePoint" />
            <mxPoint x="198.82999999999998" y="221" as="targetPoint" />
          </mxGeometry>
        </mxCell>
        <mxCell id="WnRktpsRmPk0UpyU-U-L-50" value="" style="endArrow=classic;startArrow=classic;html=1;rounded=0;entryX=0.5;entryY=1;entryDx=0;entryDy=0;exitX=0.095;exitY=0.021;exitDx=0;exitDy=0;exitPerimeter=0;" edge="1" parent="1">
          <mxGeometry width="50" height="50" relative="1" as="geometry">
            <mxPoint x="238.82999999999998" y="281" as="sourcePoint" />
            <mxPoint x="238.82999999999998" y="221" as="targetPoint" />
          </mxGeometry>
        </mxCell>
        <mxCell id="WnRktpsRmPk0UpyU-U-L-51" value="" style="endArrow=classic;startArrow=classic;html=1;rounded=0;entryX=0.5;entryY=1;entryDx=0;entryDy=0;exitX=0.095;exitY=0.021;exitDx=0;exitDy=0;exitPerimeter=0;" edge="1" parent="1">
          <mxGeometry width="50" height="50" relative="1" as="geometry">
            <mxPoint x="278.91999999999996" y="281" as="sourcePoint" />
            <mxPoint x="278.91999999999996" y="221" as="targetPoint" />
          </mxGeometry>
        </mxCell>
      </root>
    </mxGraphModel>
  </diagram>
</mxfile>
